<svg xmlns="http://www.w3.org/2000/svg" xmlns:xlink="http://www.w3.org/1999/xlink" preserveAspectRatio="xMidYMid" width="16.125" height="16.406" viewBox="0 0 16.125 16.406">
  <defs>
    <style>
      .cls-1 {
        fill: #fff;
        filter: url(#color-overlay-1);
        fill-rule: evenodd;
      }
    </style>

    <filter id="color-overlay-1" filterUnits="userSpaceOnUse">
      <feFlood flood-color="#d83b3b"/>
      <feComposite operator="in" in2="SourceGraphic"/>
      <feBlend in2="SourceGraphic" result="solidFill"/>
    </filter>
  </defs>
  <path d="M8.071,-0.005 C3.616,-0.005 0.005,3.670 0.005,8.204 C0.005,12.738 3.616,16.413 8.071,16.413 C10.948,16.413 13.473,14.879 14.901,12.571 C14.919,12.548 14.935,12.524 14.946,12.498 C15.700,11.249 16.136,9.778 16.136,8.204 C16.136,3.670 12.525,-0.005 8.071,-0.005 ZM8.071,1.226 C10.344,1.226 12.359,2.354 13.606,4.089 L8.102,10.280 L2.580,4.068 C2.574,4.062 2.567,4.058 2.561,4.052 C3.810,2.338 5.813,1.226 8.071,1.226 ZM1.737,5.532 L4.797,8.647 L2.016,11.477 C1.505,10.501 1.215,9.387 1.215,8.204 C1.215,7.258 1.401,6.355 1.737,5.532 ZM8.071,15.182 C6.018,15.182 4.178,14.263 2.921,12.808 L5.704,9.570 L7.461,11.359 C7.465,11.364 7.469,11.369 7.473,11.374 L7.911,11.819 C8.016,11.926 8.187,11.926 8.291,11.820 L10.494,9.577 L13.244,12.779 C11.988,14.250 10.137,15.182 8.071,15.182 ZM14.142,11.444 L11.402,8.654 L14.423,5.579 C14.746,6.390 14.926,7.276 14.926,8.204 C14.926,9.374 14.642,10.475 14.142,11.444 Z" class="cls-1"/>
</svg>
