<svg xmlns="http://www.w3.org/2000/svg" xmlns:xlink="http://www.w3.org/1999/xlink" preserveAspectRatio="xMidYMid" width="14.438" height="14.88" viewBox="0 0 14.438 14.88">
  <defs>
    <style>
      .cls-1 {
        fill: #505050;
        filter: url(#color-overlay-1);
        fill-rule: evenodd;
      }
    </style>

    <filter id="color-overlay-1" filterUnits="userSpaceOnUse">
      <feFlood flood-color="#fff"/>
      <feComposite operator="in" in2="SourceGraphic"/>
      <feBlend in2="SourceGraphic" result="solidFill"/>
    </filter>
  </defs>
  <path d="M10.870,6.911 C11.747,6.714 12.462,6.320 13.014,5.726 C13.566,5.133 13.842,4.434 13.842,3.631 C13.842,2.490 13.419,1.603 12.573,0.967 C11.727,0.332 10.499,0.014 8.889,0.014 L0.000,0.014 L0.000,14.871 L8.224,14.871 C10.567,14.871 12.191,14.519 13.095,13.815 C14.000,13.111 14.452,12.050 14.452,10.632 C14.452,9.569 14.129,8.720 13.482,8.086 C12.835,7.452 11.964,7.079 10.870,6.967 L10.870,6.911 ZM5.523,3.315 L6.840,3.315 C7.817,3.315 8.305,3.667 8.305,4.371 C8.305,5.244 7.844,5.680 6.921,5.680 L5.523,5.680 L5.523,3.315 ZM5.523,8.772 L7.342,8.772 C8.355,8.772 8.862,9.219 8.862,10.115 C8.862,10.525 8.721,10.837 8.441,11.052 C8.160,11.267 7.794,11.374 7.342,11.374 L5.523,11.374 L5.523,8.772 Z" class="cls-1"/>
</svg>
